<svg height="200px" width="200px" version="1.1" id="Layer_1" xmlns="http://www.w3.org/2000/svg" xmlns:xlink="http://www.w3.org/1999/xlink" viewBox="-51.2 -51.2 614.40 614.40" xml:space="preserve" fill="#194185" stroke="#194185"><g id="SVGRepo_bgCarrier" stroke-width="0"></g><g id="SVGRepo_tracerCarrier" stroke-linecap="round" stroke-linejoin="round" stroke="#194185" stroke-width="39.936077999999995"> <path style="fill:#FFFFFF;" d="M256,504C119.033,504,8,392.967,8,256S119.033,8,256,8s248,111.033,248,248 C503.846,392.902,392.902,503.846,256,504z"></path> <path style="fill:#1570EF;" d="M256,16c132.549,0,240,107.451,240,240s-107.452,240-240,240S16,388.548,16,256 C16.15,123.514,123.514,16.15,256,16 M256,0C114.615,0,0,114.615,0,256s114.615,256,256,256s256-114.615,256-256S397.385,0,256,0z"></path> <path style="fill:#FFFFFF;" d="M256,467.896c-117.027,0-211.896-94.869-211.896-211.896S138.973,44.104,256,44.104 S467.896,138.973,467.896,256l0,0C467.764,372.972,372.972,467.764,256,467.896z"></path> <path style="fill:#CCCCCC;" d="M256,48.104c114.818,0,207.896,93.078,207.896,207.896S370.818,463.897,256,463.897 S48.104,370.818,48.104,256C48.232,141.235,141.235,48.232,256,48.104 M256,40.104c-119.237,0-215.896,96.66-215.896,215.896 S136.764,471.897,256,471.897S471.897,375.237,471.897,256l0,0C471.896,136.764,375.236,40.104,256,40.104z"></path> <path d="M294.912,133.521c-67.647-26.686-144.119,6.519-170.806,74.166s6.519,144.119,74.166,170.806 c67.647,26.686,144.119-6.519,170.806-74.166c6.071-15.388,9.187-31.783,9.187-48.325H246.593L294.912,133.521z"></path> <path style="fill:#1570EF;" d="M321.96,124.328l-43.56,110.384h118.68C397.075,185.985,367.286,142.213,321.96,124.328z"></path> </g><g id="SVGRepo_iconCarrier"> <path style="fill:#FFFFFF;" d="M256,504C119.033,504,8,392.967,8,256S119.033,8,256,8s248,111.033,248,248 C503.846,392.902,392.902,503.846,256,504z"></path> <path style="fill:#1570EF;" d="M256,16c132.549,0,240,107.451,240,240s-107.452,240-240,240S16,388.548,16,256 C16.15,123.514,123.514,16.15,256,16 M256,0C114.615,0,0,114.615,0,256s114.615,256,256,256s256-114.615,256-256S397.385,0,256,0z"></path> <path style="fill:#FFFFFF;" d="M256,467.896c-117.027,0-211.896-94.869-211.896-211.896S138.973,44.104,256,44.104 S467.896,138.973,467.896,256l0,0C467.764,372.972,372.972,467.764,256,467.896z"></path> <path style="fill:#CCCCCC;" d="M256,48.104c114.818,0,207.896,93.078,207.896,207.896S370.818,463.897,256,463.897 S48.104,370.818,48.104,256C48.232,141.235,141.235,48.232,256,48.104 M256,40.104c-119.237,0-215.896,96.66-215.896,215.896 S136.764,471.897,256,471.897S471.897,375.237,471.897,256l0,0C471.896,136.764,375.236,40.104,256,40.104z"></path> <path d="M294.912,133.521c-67.647-26.686-144.119,6.519-170.806,74.166s6.519,144.119,74.166,170.806 c67.647,26.686,144.119-6.519,170.806-74.166c6.071-15.388,9.187-31.783,9.187-48.325H246.593L294.912,133.521z"></path> <path style="fill:#1570EF;" d="M321.96,124.328l-43.56,110.384h118.68C397.075,185.985,367.286,142.213,321.96,124.328z"></path> </g></svg>
