<svg xmlns="http://www.w3.org/2000/svg" width="300" height="300" viewBox="650 220 220 300" fill="#175CD3">
  <path d="M799 226 L790 223 L792 305 L789 333 L779 371 L763 406 L746 431 L719 458 L687 479 L655 491 L655 498 L699 509 L729 508 L760 499 L798 475 L819 453 L842 417 L852 393 L859 361 L860 327 L857 307 L850 285 L834 257 L816 238 Z" />
  
  {/* Hoja derecha rotada -15 grados */}
  <g transform="rotate(-15, 700, 350)">
      <path d="M651 223 L652 256 L660 288 L669 306 L690 339 L702 371 L704 398 L695 427 L696 431 L725 410 L738 396 L745 385 L753 365 L756 348 L754 320 L751 308 L740 285 L729 270 L714 255 L683 234 L668 227 Z" />
  </g>
</svg>
